<svg xmlns="http://www.w3.org/2000/svg" xmlns:xlink="http://www.w3.org/1999/xlink" viewBox="0 0 48.78 41.05"><defs><style>.cls-1{fill:url(#Gradiente_sem_nome_220);}</style><linearGradient id="Gradiente_sem_nome_220" x1="24.39" y1="41.05" x2="24.39" gradientUnits="userSpaceOnUse"><stop offset="0" stop-color="#8805ff"/><stop offset="0.5" stop-color="#1d10fe"/><stop offset="1" stop-color="#09f8ce"/></linearGradient></defs><g id="Camada_2" data-name="Camada 2"><g id="Camada_1-2" data-name="Camada 1"><path class="cls-1" d="M2.63,10.81A13.81,13.81,0,0,1,3.58,8a6.51,6.51,0,0,1,1.81.69c.1.06.45.27.54.34a11,11,0,0,1,2.35,2.27h0a11.26,11.26,0,0,1,2.33,6.43c0,.11,0,.22,0,.34v.18a11.2,11.2,0,0,1-.48,3.14l-.22.46a2.28,2.28,0,0,0-.34,1.25,2.38,2.38,0,0,0,2.46,2.38,2.46,2.46,0,0,0,2.12-1.58,2.27,2.27,0,0,0-.44-2.4c-.16-.24-.31-.42-.43-.64l-.08-.15h0a14.24,14.24,0,0,1-1.17-3.16h0a14.13,14.13,0,0,1-.4-3.4c0-.43,0-.85.07-1.27a14.51,14.51,0,0,1,1.51-5.33h0a14.58,14.58,0,0,1,7.92-7h0a9.24,9.24,0,0,1,6.39,0l.06,0a14.59,14.59,0,0,1,7.84,7h0A14.43,14.43,0,0,1,37,14c0,.06,0,.11,0,.17a14.07,14.07,0,0,1-.37,3.27,14.54,14.54,0,0,1-1.21,3.33h0c-.1.2-.23.35-.34.53a2.65,2.65,0,0,0-.8,1.84,2.39,2.39,0,0,0,3,2.3A2.36,2.36,0,0,0,39,23.79a2.45,2.45,0,0,0-.19-1.74l-.2-.43A11.27,11.27,0,0,1,38,18.08c0-.16,0-.31,0-.46a11.14,11.14,0,0,1,2.31-6.39A11.46,11.46,0,0,1,42,9.48a10.16,10.16,0,0,1,1-.72l.54-.31a5.16,5.16,0,0,1,1.64-.57,13.92,13.92,0,0,1,1,2.78,8.08,8.08,0,0,0-4.77,6,8.71,8.71,0,0,0-.13,1.46,7.93,7.93,0,0,0,.34,2.29h0A12.23,12.23,0,0,0,42,21.7h0a4,4,0,0,1,.24,1.39,5.47,5.47,0,0,1-.88,3,5.84,5.84,0,0,1-1.22,1.36,5.64,5.64,0,0,1-7.48-.36,5.72,5.72,0,0,1-1.15-1.6c-.06-.12-.11-.25-.16-.38a5.6,5.6,0,0,1-.17-.54,2.17,2.17,0,0,1-.07-.24A5.32,5.32,0,0,1,31,23.09a5.58,5.58,0,0,1,.32-1.88,3.16,3.16,0,0,1,.33-.63l.14-.22a10.93,10.93,0,0,0,1.86-6.18A11.29,11.29,0,0,0,26.12,3.54l-.29-.09a5,5,0,0,0-3,0,11.28,11.28,0,0,0-6.37,16.18l.09.16.32.54a5.41,5.41,0,0,1,.53,1.08,5.71,5.71,0,0,1,.31,1.76v0a5.29,5.29,0,0,1-.12,1.13l-.06.22c-.05.19-.1.39-.17.58s-.1.26-.16.39a5.7,5.7,0,0,1-1.1,1.6,5.59,5.59,0,0,1-1.38,1,5.52,5.52,0,0,1-2.65.67,5.63,5.63,0,0,1-3.54-1.25,5.59,5.59,0,0,1-2-3.45,4.8,4.8,0,0,1-.08-.85,3.52,3.52,0,0,1,.24-1.36c.2-.53.31-.94.45-1.41a7.83,7.83,0,0,0,.33-2.29v-.09a7.35,7.35,0,0,0-.13-1.42A8,8,0,0,0,2.63,10.81ZM20,31.89h0a12.13,12.13,0,0,0,2.7-3.34l0-.05a11,11,0,0,0,.75-1.68,11.14,11.14,0,0,1-3-.64,9.76,9.76,0,0,1-.69,1.37h0a9.11,9.11,0,0,1-2.48,2.62A9.08,9.08,0,0,1,6,29.46,9.09,9.09,0,0,1,3,23.09c0-.09,0-.17,0-.25s0-.06,0-.09a9,9,0,0,1,1.16-4.41,6.09,6.09,0,0,0-1.5-3.17A12,12,0,0,0,0,22.74H0A11.78,11.78,0,0,0,.21,24.9c0,.05,0,.1,0,.15a12.09,12.09,0,0,0,11.88,9.8A12,12,0,0,0,20,31.89ZM46.48,15.67c-.12-.17-.26-.32-.4-.49a6,6,0,0,0-1.48,3.18,9.22,9.22,0,0,1,.65,1.43,8.22,8.22,0,0,1,.37,1.42,8.8,8.8,0,0,1,.13,1.56v.07c0,.08,0,.17,0,.25A9.08,9.08,0,0,1,28.91,27.5h0a10.11,10.11,0,0,1-.65-1.32,11.14,11.14,0,0,1-3,.64,13,13,0,0,0,.58,1.38h0c.1.19.2.38.31.57a12.1,12.1,0,0,0,22.4-3.72c0-.05,0-.1,0-.15a11.48,11.48,0,0,0,.21-2.13v0A12.12,12.12,0,0,0,46.48,15.67ZM36.64,38A15.05,15.05,0,0,1,32,37.3a15.22,15.22,0,0,1-5.57-3.22,15.45,15.45,0,0,1-2.06-2.29,15.45,15.45,0,0,1-2.06,2.29A15.18,15.18,0,0,1,8.37,37.55,12.06,12.06,0,0,0,8,40.45v.13a18,18,0,0,0,4.11.47,18.18,18.18,0,0,0,12.26-4.74,18.14,18.14,0,0,0,12.25,4.74,18,18,0,0,0,4.11-.47v-.13a12.06,12.06,0,0,0-.35-2.9A15,15,0,0,1,36.64,38Z"/></g></g></svg>