<svg xmlns="http://www.w3.org/2000/svg" viewBox="0 0 48.78 41.05"><defs><style>.cls-1{fill:#fff;}</style></defs><g id="Camada_2" data-name="Camada 2"><g id="Camada_1-2" data-name="Camada 1"><path class="cls-1" d="M7.27,16.7a7.35,7.35,0,0,1,.13,1.42v.09a7.83,7.83,0,0,1-.33,2.29c-.14.47-.25.88-.45,1.41a3.52,3.52,0,0,0-.24,1.36,4.8,4.8,0,0,0,.08.85,5.59,5.59,0,0,0,2,3.45A5.63,5.63,0,0,0,12,28.82a5.52,5.52,0,0,0,2.65-.67,5.59,5.59,0,0,0,1.38-1,5.7,5.7,0,0,0,1.1-1.6c.06-.13.11-.26.16-.39s.12-.39.17-.58l.06-.22a5.29,5.29,0,0,0,.12-1.13v0a5.71,5.71,0,0,0-.31-1.76,5.41,5.41,0,0,0-.53-1.08l-.32-.54-.09-.16A11.28,11.28,0,0,1,22.78,3.46a5,5,0,0,1,3,0l.29.09a11.29,11.29,0,0,1,7.53,10.64,10.93,10.93,0,0,1-1.86,6.18l-.14.22a3.16,3.16,0,0,0-.33.63A5.58,5.58,0,0,0,31,23.09a5.32,5.32,0,0,0,.15,1.27,2.17,2.17,0,0,0,.07.24,5.6,5.6,0,0,0,.17.54c.05.13.1.26.16.38a5.72,5.72,0,0,0,1.15,1.6,5.63,5.63,0,0,0,7.48.36,5.84,5.84,0,0,0,1.22-1.36,5.47,5.47,0,0,0,.88-3A4,4,0,0,0,42,21.7h0a12.23,12.23,0,0,1-.45-1.33h0a7.93,7.93,0,0,1-.34-2.29,8.71,8.71,0,0,1,.13-1.46,8.08,8.08,0,0,1,4.77-6,13.92,13.92,0,0,0-1-2.78,5.16,5.16,0,0,0-1.64.57L43,8.76a10.16,10.16,0,0,0-1,.72,11.46,11.46,0,0,0-1.66,1.75A11.14,11.14,0,0,0,38,17.62c0,.15,0,.3,0,.46a11.27,11.27,0,0,0,.57,3.54l.2.43A2.45,2.45,0,0,1,39,23.79a2.36,2.36,0,0,1-1.65,1.66,2.39,2.39,0,0,1-3-2.3,2.65,2.65,0,0,1,.8-1.84c.11-.18.24-.33.34-.53h0a14.54,14.54,0,0,0,1.21-3.33A14.07,14.07,0,0,0,37,14.18c0-.06,0-.11,0-.17a14.43,14.43,0,0,0-1.57-6.43h0A14.59,14.59,0,0,0,27.6.6l-.06,0a9.24,9.24,0,0,0-6.39,0h0a14.58,14.58,0,0,0-7.92,7h0a14.51,14.51,0,0,0-1.51,5.33c0,.42-.07.84-.07,1.27a14.13,14.13,0,0,0,.4,3.4h0a14.24,14.24,0,0,0,1.17,3.16h0l.08.15c.12.22.27.4.43.64a2.27,2.27,0,0,1,.44,2.4,2.46,2.46,0,0,1-2.12,1.58,2.38,2.38,0,0,1-2.46-2.38,2.28,2.28,0,0,1,.34-1.25l.22-.46a11.2,11.2,0,0,0,.48-3.14V18.1c0-.12,0-.23,0-.34a11.26,11.26,0,0,0-2.33-6.43h0A11,11,0,0,0,5.93,9.06c-.09-.07-.44-.28-.54-.34A6.51,6.51,0,0,0,3.58,8a13.81,13.81,0,0,0-1,2.78A8,8,0,0,1,7.27,16.7Z"/><path class="cls-1" d="M20,31.89h0a12.13,12.13,0,0,0,2.7-3.34l0-.05a11,11,0,0,0,.75-1.68,11.14,11.14,0,0,1-3-.64,9.76,9.76,0,0,1-.69,1.37h0a9.11,9.11,0,0,1-2.48,2.62A9.08,9.08,0,0,1,6,29.46,9.09,9.09,0,0,1,3,23.09c0-.09,0-.17,0-.25s0-.06,0-.09a9,9,0,0,1,1.16-4.41,6.09,6.09,0,0,0-1.5-3.17A12,12,0,0,0,0,22.74H0A11.78,11.78,0,0,0,.21,24.9c0,.05,0,.1,0,.15a12.09,12.09,0,0,0,11.88,9.8A12,12,0,0,0,20,31.89Z"/><path class="cls-1" d="M46.48,15.67c-.12-.17-.26-.32-.4-.49a6,6,0,0,0-1.48,3.18,9.22,9.22,0,0,1,.65,1.43,8.22,8.22,0,0,1,.37,1.42,8.8,8.8,0,0,1,.13,1.56v.07c0,.08,0,.17,0,.25A9.08,9.08,0,0,1,28.91,27.5h0a10.11,10.11,0,0,1-.65-1.32,11.14,11.14,0,0,1-3,.64,13,13,0,0,0,.58,1.38h0c.1.19.2.38.31.57a12.1,12.1,0,0,0,22.4-3.72c0-.05,0-.1,0-.15a11.48,11.48,0,0,0,.21-2.13v0A12.12,12.12,0,0,0,46.48,15.67Z"/><path class="cls-1" d="M36.64,38A15.05,15.05,0,0,1,32,37.3a15.22,15.22,0,0,1-5.57-3.22,15.45,15.45,0,0,1-2.06-2.29,15.45,15.45,0,0,1-2.06,2.29A15.18,15.18,0,0,1,8.37,37.55,12.06,12.06,0,0,0,8,40.45v.13a18,18,0,0,0,4.11.47,18.18,18.18,0,0,0,12.26-4.74,18.14,18.14,0,0,0,12.25,4.74,18,18,0,0,0,4.11-.47v-.13a12.06,12.06,0,0,0-.35-2.9A15,15,0,0,1,36.64,38Z"/></g></g></svg>